<svg width="15" height="12" fill="none" xmlns="http://www.w3.org/2000/svg"><path fill-rule="evenodd" clip-rule="evenodd" d="M6.886 3.192l.03.52-.512-.064C4.54 3.404 2.91 2.578 1.527 1.19L.85.502l-.175.508c-.369 1.134-.133 2.33.636 3.136.41.444.317.508-.39.243-.246-.085-.46-.148-.481-.116-.072.074.174 1.038.369 1.419.266.53.809 1.049 1.403 1.356l.502.244-.594.01c-.574 0-.594.01-.533.233.205.689 1.015 1.42 1.917 1.737l.635.223-.553.339a5.666 5.666 0 01-2.747.784c-.46.01-.84.053-.84.084 0 .106 1.25.7 1.978.932 2.182.689 4.775.392 6.722-.783 1.383-.837 2.767-2.5 3.412-4.11.348-.858.697-2.426.697-3.178 0-.487.03-.55.605-1.133.338-.34.655-.71.717-.816.102-.201.092-.201-.43-.021-.872.317-.995.275-.564-.202.317-.339.697-.953.697-1.133 0-.032-.154.021-.328.117-.185.106-.595.264-.902.36l-.553.18-.502-.35c-.277-.19-.666-.402-.871-.466-.523-.148-1.322-.127-1.794.043-1.28.476-2.09 1.705-1.998 3.05z" fill="#E8F2F4"/></svg>