<svg width="13" height="12" fill="none" xmlns="http://www.w3.org/2000/svg"><path fill-rule="evenodd" clip-rule="evenodd" d="M3.213 1.399C3.196.605 2.628 0 1.706 0 .784 0 .182.605.182 1.399c0 .777.585 1.399 1.49 1.399h.016c.94 0 1.525-.622 1.525-1.4zm-.178 2.504H.34V12h2.695V3.903zm6.617-.19c1.773 0 3.102 1.157 3.102 3.644V12H10.06V7.668c0-1.088-.39-1.83-1.366-1.83-.744 0-1.188.5-1.383.984-.07.173-.088.414-.088.656V12H4.528s.035-7.337 0-8.097h2.695V5.05c.357-.551.998-1.337 2.429-1.337z" fill="#E8F2F4"/></svg>