<svg width="13" height="12" fill="none" xmlns="http://www.w3.org/2000/svg"><path fill-rule="evenodd" clip-rule="evenodd" d="M6.354 0C4.724 0 4.52.007 3.88.036c-.639.03-1.075.13-1.456.279-.395.153-.73.358-1.063.692A2.945 2.945 0 00.668 2.07C.52 2.45.418 2.887.39 3.526.36 4.166.354 4.37.354 6c0 1.63.007 1.833.036 2.473.03.64.13 1.075.279 1.457.153.394.358.729.692 1.063.333.333.668.539 1.062.692.382.148.818.25 1.457.279.64.029.844.036 2.473.036 1.63 0 1.834-.007 2.474-.036.639-.03 1.075-.13 1.457-.279a2.934 2.934 0 001.062-.693c.334-.333.539-.668.692-1.062.148-.382.25-.818.28-1.457.028-.64.035-.844.035-2.473 0-1.63-.007-1.834-.036-2.474-.03-.639-.131-1.075-.279-1.456a2.946 2.946 0 00-.692-1.063 2.933 2.933 0 00-1.063-.692C9.901.167 9.465.065 8.826.036 8.186.007 7.982 0 6.352 0h.002zm-.538 1.081h.538c1.602 0 1.792.006 2.425.035.585.026.902.124 1.114.206.28.11.48.24.69.45.21.21.34.41.448.69.083.21.18.528.207 1.113.029.632.035.822.035 2.424 0 1.6-.006 1.79-.035 2.423-.027.585-.124.903-.207 1.114-.108.28-.239.48-.449.69-.21.21-.409.34-.689.448-.211.083-.529.18-1.114.207-.633.029-.823.035-2.425.035-1.602 0-1.792-.006-2.424-.035-.585-.027-.903-.125-1.114-.207a1.858 1.858 0 01-.69-.449 1.86 1.86 0 01-.45-.69c-.081-.21-.18-.528-.206-1.113-.029-.633-.034-.823-.034-2.425 0-1.602.005-1.791.034-2.424.027-.585.125-.902.207-1.114.109-.28.239-.48.449-.69.21-.21.41-.34.69-.449.211-.082.529-.18 1.114-.207.553-.024.768-.032 1.886-.033v.001zm3.74.997a.72.72 0 100 1.44.72.72 0 000-1.44zm-3.202.84a3.081 3.081 0 100 6.163 3.081 3.081 0 000-6.162zm0 1.082a2 2 0 110 4 2 2 0 010-4z" fill="#E8F2F4"/></svg>