<svg width="13" height="12" fill="none" xmlns="http://www.w3.org/2000/svg"><path d="M6.354 0a6.002 6.002 0 00-2.188 11.59c-.054-.474-.099-1.205.02-1.723.108-.47.7-2.983.7-2.983s-.177-.36-.177-.889c0-.835.484-1.457 1.086-1.457.514 0 .761.385.761.845 0 .513-.326 1.284-.499 2-.143.597.301 1.086.89 1.086 1.066 0 1.886-1.126 1.886-2.746 0-1.437-1.033-2.439-2.51-2.439-1.708 0-2.71 1.279-2.71 2.602 0 .514.197 1.067.444 1.368.05.06.055.114.04.173-.045.188-.148.598-.168.682-.025.108-.09.133-.203.079-.75-.351-1.22-1.442-1.22-2.326 0-1.892 1.373-3.63 3.966-3.63 2.079 0 3.699 1.482 3.699 3.467 0 2.069-1.304 3.733-3.111 3.733-.608 0-1.18-.316-1.373-.691l-.375 1.427c-.134.523-.5 1.175-.746 1.575a6.028 6.028 0 001.778.267 6 6 0 006-6A5.988 5.988 0 006.354 0z" fill="#E8F2F4"/></svg>